{"title":"Underworld 2003 Director's Cut 1080p.BluRay.5.1.x264 . NVEE","uid":11466618,"size":3081053787,"categoryP":"video","categoryS":"hd___movies","magnet":"?xt=urn:btih:a60c8aa3bae39971b31dff36264f2dec702cef0d&amp;dn=Underworld+2003+Director%27s+Cut+1080p.BluRay.5.1.x264+.+NVEE&amp;tr=udp%3A%2F%2Ftracker.openbittorrent.com%3A80&amp;tr=udp%3A%2F%2Fopen.demonii.com%3A1337&amp;tr=udp%3A%2F%2Ftracker.coppersurfer.tk%3A6969&amp;tr=udp%3A%2F%2Fexodus.desync.com%3A6969","seeders":1,"leechers":0,"uploader":".NVEE","files":-1,"time":1416039654,"description":"\n\nQuick note :\nPlease seed to a Share Ratio of at least 3.3\nIf you require a torrent release I have posted in the past, not seeding,...\nPlease do not hesitate to inform me in any means you find fit to do so.\nTorrent requests also &quot;Always Welcome.&quot;\n\n\nFULL_INFOs\n\n99.99% --- SYNCED GUARANTEED \n\n&quot;Totally scrutinized / analyzed to be a verified torrent.&quot;\n___________________________________________\n\nSource : Blu-ray ~ 1080p\n\n\n\nSpoken Language : English\n\nAudio : 6 ~ Channels Only\n\n\nSubs Info :\n\nx5 ~ Multisubs .srt\n\nAll .srt UTF-8 .idx &amp; .ass subs can be turned On/Off\n_____________________________________\n---------------------------------------------------------------------------------\n\nGeneral Metadata\n\nComplete name : Underworld 2003.Director's.Cut.812p.BluRay.5.1.x264 . NVEE.mp4\nFormat : MPEG-4\nFormat profile : Base Media\nCodec ID : isom\nFile size : 2.87 GiB\nDuration : 2h 13mn\nOverall bit rate : 3 074 Kbps\nEncoded date : UTC 2014-11-02 21:50:36\nTagged date : UTC 2014-11-02 21:50:36\n\n\nVideo\n\nID : 1\nFormat : AVC\nFormat/Info : Advanced Video Codec\nFormat profile : &lt;a class=&quot;__cf_email__&quot; href=&quot;/cdn-cgi/l/email-protection&quot; data-cfemail=&quot;e5ad8c828da5a9d1cbd4&quot;&gt;[email&amp;#160;protected]&lt;/a&gt;&lt;script cf-hash='f9e31' type=&quot;text/javascript&quot;&gt;\n/* &lt;![CDATA[ */!function(){try{var t=&quot;currentScript&quot;in document?document.currentScript:function(){for(var t=document.getElementsByTagName(&quot;script&quot;),e=t.length;e--;)if(t[e].getAttribute(&quot;cf-hash&quot;))return t[e]}();if(t&amp;&amp;t.previousSibling){var e,r,n,i,c=t.previousSibling,a=c.getAttribute(&quot;data-cfemail&quot;);if(a){for(e=&quot;&quot;,r=parseInt(a.substr(0,2),16),n=2;a.length-n;n+=2)i=parseInt(a.substr(n,2),16)^r,e+=String.fromCharCode(i);e=document.createTextNode(e),c.parentNode.replaceChild(e,c)}}}catch(u){}}();/* ]]&gt; */&lt;/script&gt;\nFormat settings, CABAC : Yes\nFormat settings, ReFrames : 3 frames\nCodec ID : avc1\nCodec ID/Info : Advanced Video Coding\nDuration : 2h 13mn\nBit rate : 2 433 Kbps\nMaximum bit rate : 16.7 Mbps\nWidth : 1 920 pixels\nHeight : 812 pixels\nDisplay aspect ratio : 2.35:1\nFrame rate mode : Constant\nFrame rate : 23.976 fps\nColor space : YUV\nChroma subsampling : 4:2:0\nBit depth : 8 bits\nScan type : Progressive\nBits/(Pixel*Frame) : 0.065\nStream size : 2.27 GiB (79%)\nWriting library : x264 core 142 r2479 dd79a61\nEncoded from Physical Blu-ray / Region free\n\n\nAudio\n\nID : 2\nFormat : AC-3\nFormat/Info : Audio Coding 3\nMode extension : CM (complete main)\nFormat settings, Endianness : Big\nCodec ID : ac-3\nDuration : 2h 13mn\nBit rate mode : Constant\nBit rate : 640 Kbps\nChannel(s) : 6 channels\nChannel positions : Front: L C R, Side: L R, LFE\nSampling rate : 48.0 KHz\nBit depth : 16 bits\nCompression mode : Lossy\nStream size : 612 MiB (21%)\nLanguage : English\nEncoded date : UTC 2014-11-02 22:01:28\nTagged date : UTC 2014-11-02 22:01:42\nEncoded from Physical Blu-ray 6 Channel audio &quot;Always&quot;.\n\n\nEnj0y !","torrent":{"xt":"urn:btih:a60c8aa3bae39971b31dff36264f2dec702cef0d","amp;dn":"Underworld+2003+Director%27s+Cut+1080p.BluRay.5.1.x264+.+NVEE","amp;tr":["udp%3A%2F%2Ftracker.openbittorrent.com%3A80","udp%3A%2F%2Fopen.demonii.com%3A1337","udp%3A%2F%2Ftracker.coppersurfer.tk%3A6969","udp%3A%2F%2Fexodus.desync.com%3A6969"],"infoHash":"a60c8aa3bae39971b31dff36264f2dec702cef0d","infoHashBuffer":{"type":"Buffer","data":[166,12,138,163,186,227,153,113,179,29,255,54,38,79,45,236,112,44,239,13]},"announce":[],"urlList":[]}}